<svg xmlns="http://www.w3.org/2000/svg" xmlns:xlink="http://www.w3.org/1999/xlink" width="1000" zoomAndPan="magnify" viewBox="115 55 520 190" height="400" preserveAspectRatio="xMidYMid meet" version="1.0"><defs><g/><clipPath id="4b87d14acb"><path d="M 0.480469 0 L 512.160156 0 L 512.160156 179.28125 L 0.480469 179.28125 Z M 0.480469 0 " clip-rule="nonzero"/></clipPath><clipPath id="b5a84f9a47"><rect x="0" width="513" y="0" height="180"/></clipPath><clipPath id="d56a26daa7"><path d="M 248 27 L 279 27 L 279 58 L 248 58 Z M 248 27 " clip-rule="nonzero"/></clipPath><clipPath id="c68cd562f7"><path d="M 262.535156 21.742188 L 284.945312 41.777344 L 264.90625 64.1875 L 242.496094 44.152344 Z M 262.535156 21.742188 " clip-rule="nonzero"/></clipPath><clipPath id="f0097efec9"><path d="M 273.738281 31.757812 C 267.550781 26.226562 258.046875 26.757812 252.515625 32.945312 C 246.984375 39.132812 247.515625 48.636719 253.703125 54.167969 C 259.890625 59.703125 269.394531 59.171875 274.925781 52.980469 C 280.457031 46.792969 279.925781 37.292969 273.738281 31.757812 Z M 273.738281 31.757812 " clip-rule="nonzero"/></clipPath><clipPath id="be2a66aacc"><path d="M 0 0 L 31 0 L 31 31 L 0 31 Z M 0 0 " clip-rule="nonzero"/></clipPath><clipPath id="d9dae594a5"><path d="M 14.535156 -5.257812 L 36.945312 14.777344 L 16.90625 37.1875 L -5.503906 17.152344 Z M 14.535156 -5.257812 " clip-rule="nonzero"/></clipPath><clipPath id="de318af7f1"><path d="M 25.738281 4.757812 C 19.550781 -0.773438 10.046875 -0.242188 4.515625 5.945312 C -1.015625 12.132812 -0.484375 21.636719 5.703125 27.167969 C 11.890625 32.703125 21.394531 32.171875 26.925781 25.980469 C 32.457031 19.792969 31.925781 10.292969 25.738281 4.757812 Z M 25.738281 4.757812 " clip-rule="nonzero"/></clipPath><clipPath id="3dbe859254"><rect x="0" width="31" y="0" height="31"/></clipPath><clipPath id="6b0318c00a"><rect x="0" width="513" y="0" height="180"/></clipPath></defs><g transform="matrix(1, 0, 0, 1, 120, 60)"><g clip-path="url(#6b0318c00a)"><g clip-path="url(#4b87d14acb)"><g><g clip-path="url(#b5a84f9a47)"><g fill="#ffffff" fill-opacity="1"><g transform="translate(0.878983, 144.309658)"><g><path d="M 61.171875 -108.328125 C 65.015625 -108.328125 67.847656 -108.003906 69.671875 -107.359375 C 71.492188 -106.722656 72.800781 -105.664062 73.59375 -104.1875 C 74.675781 -101.914062 75.21875 -98.859375 75.21875 -95.015625 L 75.21875 -37.828125 C 75.21875 -27.484375 71.472656 -18.34375 63.984375 -10.40625 C 56.503906 -2.476562 46.945312 1.484375 35.3125 1.484375 C 28.8125 1.484375 23.050781 0.0507812 18.03125 -2.8125 C 13.5 -5.269531 10.347656 -7.484375 8.578125 -9.453125 L 7.390625 -10.640625 C 3.941406 -14.285156 2.21875 -17.410156 2.21875 -20.015625 C 2.21875 -22.628906 3.941406 -25.707031 7.390625 -29.25 C 10.835938 -32.800781 13.890625 -34.578125 16.546875 -34.578125 C 19.210938 -34.578125 22.171875 -32.953125 25.421875 -29.703125 C 28.671875 -26.453125 32.191406 -24.828125 35.984375 -24.828125 C 39.773438 -24.828125 42.898438 -26.109375 45.359375 -28.671875 C 47.828125 -31.234375 49.0625 -34.628906 49.0625 -38.859375 L 49.0625 -94.140625 C 49.0625 -100.046875 50.046875 -103.835938 52.015625 -105.515625 C 54.285156 -107.390625 57.335938 -108.328125 61.171875 -108.328125 Z M 61.171875 -108.328125 "/></g></g></g><g fill="#ffffff" fill-opacity="1"><g transform="translate(84.230075, 144.309658)"><g><path d="M 40.484375 -0.296875 C 30.535156 -0.296875 22.285156 -4.0625 15.734375 -11.59375 C 9.179688 -19.132812 5.90625 -28.320312 5.90625 -39.15625 L 5.90625 -65.03125 C 5.90625 -67.394531 5.976562 -69.117188 6.125 -70.203125 C 6.28125 -71.285156 6.703125 -72.5625 7.390625 -74.03125 C 8.765625 -76.695312 12.609375 -78.03125 18.921875 -78.03125 C 25.816406 -78.03125 29.851562 -76.15625 31.03125 -72.40625 C 31.625 -70.832031 31.921875 -68.320312 31.921875 -64.875 L 31.921875 -39.015625 C 31.921875 -34.972656 33.078125 -31.816406 35.390625 -29.546875 C 37.703125 -27.285156 40.804688 -26.15625 44.703125 -26.15625 C 48.597656 -26.15625 51.75 -27.335938 54.15625 -29.703125 C 56.570312 -32.066406 57.78125 -35.171875 57.78125 -39.015625 L 57.78125 -65.171875 C 57.78125 -67.441406 57.851562 -69.140625 58 -70.265625 C 58.144531 -71.398438 58.613281 -72.707031 59.40625 -74.1875 C 60.6875 -76.75 64.476562 -78.03125 70.78125 -78.03125 C 76.988281 -78.03125 80.785156 -76.695312 82.171875 -74.03125 C 82.859375 -72.5625 83.273438 -71.257812 83.421875 -70.125 C 83.566406 -68.988281 83.640625 -67.289062 83.640625 -65.03125 L 83.640625 -12.703125 C 83.640625 -10.535156 83.566406 -8.882812 83.421875 -7.75 C 83.273438 -6.625 82.804688 -5.367188 82.015625 -3.984375 C 80.535156 -1.421875 76.742188 -0.140625 70.640625 -0.140625 C 64.628906 -0.140625 60.9375 -1.320312 59.5625 -3.6875 C 58.570312 -5.363281 58.078125 -7.382812 58.078125 -9.75 C 57.679688 -9.0625 56.789062 -8.078125 55.40625 -6.796875 C 54.03125 -5.515625 52.703125 -4.429688 51.421875 -3.546875 C 48.078125 -1.378906 44.429688 -0.296875 40.484375 -0.296875 Z M 40.484375 -0.296875 "/></g></g></g><g fill="#ffffff" fill-opacity="1"><g transform="translate(176.004947, 144.309658)"><g><path d="M 58.8125 -76.984375 C 60.6875 -76.398438 62.238281 -75.394531 63.46875 -73.96875 C 64.695312 -72.539062 65.3125 -70.25 65.3125 -67.09375 C 65.3125 -63.9375 64.375 -60.484375 62.5 -56.734375 C 60.632812 -52.992188 57.929688 -51.125 54.390625 -51.125 C 52.609375 -51.125 50.90625 -51.519531 49.28125 -52.3125 C 47.65625 -53.101562 45.507812 -53.5 42.84375 -53.5 C 40.1875 -53.5 37.703125 -52.5625 35.390625 -50.6875 C 33.078125 -48.8125 31.921875 -46.546875 31.921875 -43.890625 L 31.921875 -12.859375 C 31.921875 -10.585938 31.847656 -8.882812 31.703125 -7.75 C 31.554688 -6.625 31.085938 -5.320312 30.296875 -3.84375 C 28.816406 -1.28125 24.972656 0 18.765625 0 C 14.035156 0 10.640625 -0.835938 8.578125 -2.515625 C 6.992188 -3.890625 6.101562 -6.003906 5.90625 -8.859375 C 5.90625 -9.847656 5.90625 -11.28125 5.90625 -13.15625 L 5.90625 -65.03125 C 5.90625 -67.289062 5.976562 -68.988281 6.125 -70.125 C 6.28125 -71.257812 6.703125 -72.515625 7.390625 -73.890625 C 8.765625 -76.546875 12.609375 -77.875 18.921875 -77.875 C 24.828125 -77.875 28.519531 -76.742188 30 -74.484375 C 31.082031 -72.910156 31.625 -71.285156 31.625 -69.609375 C 32.113281 -70.296875 32.828125 -71.128906 33.765625 -72.109375 C 34.703125 -73.097656 36.695312 -74.429688 39.75 -76.109375 C 42.800781 -77.785156 45.484375 -78.625 47.796875 -78.625 C 50.117188 -78.625 52.066406 -78.5 53.640625 -78.25 C 55.222656 -78 56.945312 -77.578125 58.8125 -76.984375 Z M 58.8125 -76.984375 "/></g></g></g><g fill="#ffffff" fill-opacity="1"><g transform="translate(245.759779, 144.309658)"><g><path d="M 5.90625 -64.875 C 5.90625 -67.144531 5.976562 -68.84375 6.125 -69.96875 C 6.28125 -71.101562 6.703125 -72.410156 7.390625 -73.890625 C 8.765625 -76.453125 12.609375 -77.734375 18.921875 -77.734375 C 23.648438 -77.734375 27 -76.894531 28.96875 -75.21875 C 30.644531 -73.84375 31.53125 -71.722656 31.625 -68.859375 C 31.71875 -67.878906 31.765625 -66.453125 31.765625 -64.578125 L 31.765625 -12.859375 C 31.765625 -10.585938 31.691406 -8.882812 31.546875 -7.75 C 31.398438 -6.625 30.929688 -5.320312 30.140625 -3.84375 C 28.859375 -1.28125 25.066406 0 18.765625 0 C 12.554688 0 8.765625 -1.328125 7.390625 -3.984375 C 6.703125 -5.460938 6.28125 -6.742188 6.125 -7.828125 C 5.976562 -8.910156 5.90625 -10.632812 5.90625 -13 Z M 30.21875 -92.28125 C 29.476562 -90.851562 28.171875 -89.84375 26.296875 -89.25 C 24.429688 -88.664062 21.945312 -88.375 18.84375 -88.375 C 15.738281 -88.375 13.25 -88.664062 11.375 -89.25 C 9.507812 -89.84375 8.207031 -90.878906 7.46875 -92.359375 C 6.726562 -93.835938 6.28125 -95.144531 6.125 -96.28125 C 5.976562 -97.414062 5.90625 -99.113281 5.90625 -101.375 C 5.90625 -103.644531 5.976562 -105.34375 6.125 -106.46875 C 6.28125 -107.601562 6.703125 -108.863281 7.390625 -110.25 C 8.765625 -112.90625 12.609375 -114.234375 18.921875 -114.234375 C 25.117188 -114.234375 28.859375 -112.90625 30.140625 -110.25 C 30.929688 -108.769531 31.398438 -107.460938 31.546875 -106.328125 C 31.691406 -105.191406 31.765625 -103.488281 31.765625 -101.21875 C 31.765625 -98.957031 31.691406 -97.257812 31.546875 -96.125 C 31.398438 -95 30.957031 -93.71875 30.21875 -92.28125 Z M 30.21875 -92.28125 "/></g></g></g><g fill="#ffffff" fill-opacity="1"><g transform="translate(285.66195, 144.309658)"><g><path d="M 48.625 -77.734375 C 57.382812 -77.734375 65.4375 -73.84375 72.78125 -66.0625 C 80.125 -58.28125 83.796875 -49.238281 83.796875 -38.9375 C 83.796875 -28.644531 80.148438 -19.628906 72.859375 -11.890625 C 65.566406 -4.160156 57.734375 -0.296875 49.359375 -0.296875 C 40.984375 -0.296875 35.023438 -2.660156 31.484375 -7.390625 C 30.691406 -2.554688 26.453125 -0.140625 18.765625 -0.140625 C 12.554688 -0.140625 8.765625 -1.472656 7.390625 -4.140625 C 6.703125 -5.617188 6.28125 -6.921875 6.125 -8.046875 C 5.976562 -9.179688 5.90625 -10.882812 5.90625 -13.15625 L 5.90625 -101.375 C 5.90625 -103.644531 5.976562 -105.34375 6.125 -106.46875 C 6.28125 -107.601562 6.703125 -108.863281 7.390625 -110.25 C 8.765625 -112.90625 12.609375 -114.234375 18.921875 -114.234375 C 25.117188 -114.234375 28.859375 -112.90625 30.140625 -110.25 C 30.929688 -108.769531 31.398438 -107.460938 31.546875 -106.328125 C 31.691406 -105.191406 31.765625 -103.492188 31.765625 -101.234375 L 31.765625 -70.484375 C 35.710938 -75.316406 41.332031 -77.734375 48.625 -77.734375 Z M 35.6875 -30 C 38.101562 -27.34375 41.132812 -26.015625 44.78125 -26.015625 C 48.425781 -26.015625 51.53125 -27.34375 54.09375 -30 C 56.65625 -32.65625 57.9375 -35.609375 57.9375 -38.859375 C 57.9375 -42.117188 56.753906 -45.101562 54.390625 -47.8125 C 52.023438 -50.519531 48.867188 -51.875 44.921875 -51.875 C 40.984375 -51.875 37.851562 -50.492188 35.53125 -47.734375 C 33.21875 -44.972656 32.0625 -41.988281 32.0625 -38.78125 C 32.0625 -35.582031 33.269531 -32.65625 35.6875 -30 Z M 35.6875 -30 "/></g></g></g><g fill="#ffffff" fill-opacity="1"><g transform="translate(375.367817, 144.309658)"><g><path d="M 5.90625 -101.53125 C 5.90625 -103.789062 5.976562 -105.488281 6.125 -106.625 C 6.28125 -107.757812 6.703125 -109.066406 7.390625 -110.546875 C 8.765625 -113.203125 12.609375 -114.53125 18.921875 -114.53125 C 24.929688 -114.53125 28.671875 -113.203125 30.140625 -110.546875 C 30.929688 -109.066406 31.398438 -107.734375 31.546875 -106.546875 C 31.691406 -105.367188 31.765625 -103.644531 31.765625 -101.375 L 31.765625 -32.953125 C 31.765625 -29.410156 32.0625 -27.171875 32.65625 -26.234375 C 33.25 -25.296875 34.554688 -24.828125 36.578125 -24.828125 C 38.597656 -24.828125 39.953125 -24.753906 40.640625 -24.609375 C 41.328125 -24.460938 42.164062 -24.039062 43.15625 -23.34375 C 45.125 -22.0625 46.109375 -18.566406 46.109375 -12.859375 C 46.109375 -6.648438 45.125 -2.859375 43.15625 -1.484375 C 40.59375 0.296875 34.484375 0.59375 24.828125 -0.59375 C 17.242188 -1.570312 12.316406 -4.082031 10.046875 -8.125 C 7.285156 -12.957031 5.90625 -20.644531 5.90625 -31.1875 Z M 5.90625 -101.53125 "/></g></g></g><g fill="#ffffff" fill-opacity="1"><g transform="translate(424.432651, 144.309658)"><g><path d="M 80.984375 -48.25 C 80.984375 -42.1875 79.476562 -37.703125 76.46875 -34.796875 C 73.46875 -31.890625 70.144531 -30.4375 66.5 -30.4375 L 31.484375 -30.4375 C 31.484375 -27.6875 33.109375 -25.375 36.359375 -23.5 C 39.609375 -21.625 42.859375 -20.6875 46.109375 -20.6875 C 51.816406 -20.6875 56.300781 -21.28125 59.5625 -22.46875 L 61.1875 -23.046875 C 63.550781 -24.128906 65.519531 -24.671875 67.09375 -24.671875 C 70.25 -24.671875 72.957031 -22.457031 75.21875 -18.03125 C 76.5 -15.375 77.140625 -13.109375 77.140625 -11.234375 C 77.140625 -2.460938 66.648438 1.921875 45.671875 1.921875 C 38.378906 1.921875 31.898438 0.664062 26.234375 -1.84375 C 20.566406 -4.351562 16.15625 -7.679688 13 -11.828125 C 6.789062 -19.804688 3.6875 -28.722656 3.6875 -38.578125 C 3.6875 -50.984375 7.703125 -60.90625 15.734375 -68.34375 C 23.765625 -75.78125 33.789062 -79.5 45.8125 -79.5 C 59.507812 -79.5 69.554688 -74.675781 75.953125 -65.03125 C 79.304688 -59.90625 80.984375 -54.3125 80.984375 -48.25 Z M 49.796875 -43.890625 C 53.546875 -43.890625 55.421875 -45.46875 55.421875 -48.625 C 55.421875 -50.882812 54.554688 -52.703125 52.828125 -54.078125 C 51.109375 -55.460938 48.644531 -56.15625 45.4375 -56.15625 C 42.238281 -56.15625 39.0625 -54.847656 35.90625 -52.234375 C 32.757812 -49.628906 31.1875 -46.847656 31.1875 -43.890625 Z M 49.796875 -43.890625 "/></g></g></g></g></g></g><g clip-path="url(#d56a26daa7)"><g clip-path="url(#c68cd562f7)"><g clip-path="url(#f0097efec9)"><g transform="matrix(1, 0, 0, 1, 248, 27)"><g clip-path="url(#3dbe859254)"><g clip-path="url(#be2a66aacc)"><g clip-path="url(#d9dae594a5)"><g clip-path="url(#de318af7f1)"><path fill="#ffffff" d="M 14.535156 -5.257812 L 36.945312 14.777344 L 16.90625 37.1875 L -5.503906 17.152344 Z M 14.535156 -5.257812 " fill-opacity="1" fill-rule="nonzero"/></g></g></g></g></g></g></g></g></g></g></svg>