<svg xmlns="http://www.w3.org/2000/svg" xmlns:xlink="http://www.w3.org/1999/xlink" width="1000" zoomAndPan="magnify" viewBox="0 0 750 299.999988" height="400" preserveAspectRatio="xMidYMid meet" version="1.0"><defs><filter x="0%" y="0%" width="100%" height="100%" id="b30012a671"><feColorMatrix values="0 0 0 0 1 0 0 0 0 1 0 0 0 0 1 0 0 0 1 0" color-interpolation-filters="sRGB"/></filter><g/><clipPath id="28cfdd79a6"><path d="M 0 0 L 750 0 L 750 300 L 0 300 Z M 0 0 " clip-rule="nonzero"/></clipPath><linearGradient x1="-186.000169" gradientTransform="matrix(0.646596, 0, 0, 0.646356, 120.266957, 46.582964)" y1="159.5" x2="973.920529" gradientUnits="userSpaceOnUse" y2="159.5" id="eab413d0d8"><stop stop-opacity="1" stop-color="rgb(69.018555%, 0%, 11.369324%)" offset="0"/><stop stop-opacity="1" stop-color="rgb(69.018555%, 0%, 11.369324%)" offset="0.125"/><stop stop-opacity="1" stop-color="rgb(69.018555%, 0%, 11.369324%)" offset="0.15625"/><stop stop-opacity="1" stop-color="rgb(69.099426%, 0.0701904%, 11.386108%)" offset="0.164062"/><stop stop-opacity="1" stop-color="rgb(69.380188%, 0.311279%, 11.442566%)" offset="0.167969"/><stop stop-opacity="1" stop-color="rgb(69.578552%, 0.482178%, 11.483765%)" offset="0.171875"/><stop stop-opacity="1" stop-color="rgb(69.775391%, 0.653076%, 11.523438%)" offset="0.175781"/><stop stop-opacity="1" stop-color="rgb(69.973755%, 0.823975%, 11.564636%)" offset="0.179688"/><stop stop-opacity="1" stop-color="rgb(70.172119%, 0.994873%, 11.604309%)" offset="0.183594"/><stop stop-opacity="1" stop-color="rgb(70.370483%, 1.165771%, 11.645508%)" offset="0.1875"/><stop stop-opacity="1" stop-color="rgb(70.567322%, 1.33667%, 11.685181%)" offset="0.191406"/><stop stop-opacity="1" stop-color="rgb(70.765686%, 1.507568%, 11.726379%)" offset="0.195312"/><stop stop-opacity="1" stop-color="rgb(70.96405%, 1.678467%, 11.766052%)" offset="0.199219"/><stop stop-opacity="1" stop-color="rgb(71.162415%, 1.849365%, 11.807251%)" offset="0.203125"/><stop stop-opacity="1" stop-color="rgb(71.359253%, 2.020264%, 11.846924%)" offset="0.207031"/><stop stop-opacity="1" stop-color="rgb(71.557617%, 2.191162%, 11.888123%)" offset="0.210937"/><stop stop-opacity="1" stop-color="rgb(71.755981%, 2.362061%, 11.927795%)" offset="0.214844"/><stop stop-opacity="1" stop-color="rgb(71.954346%, 2.534485%, 11.968994%)" offset="0.21875"/><stop stop-opacity="1" stop-color="rgb(72.151184%, 2.705383%, 12.010193%)" offset="0.222656"/><stop stop-opacity="1" stop-color="rgb(72.349548%, 2.876282%, 12.051392%)" offset="0.226562"/><stop stop-opacity="1" stop-color="rgb(72.547913%, 3.04718%, 12.091064%)" offset="0.230469"/><stop stop-opacity="1" stop-color="rgb(72.746277%, 3.218079%, 12.132263%)" offset="0.234375"/><stop stop-opacity="1" stop-color="rgb(72.943115%, 3.388977%, 12.171936%)" offset="0.238281"/><stop stop-opacity="1" stop-color="rgb(73.141479%, 3.559875%, 12.213135%)" offset="0.242187"/><stop stop-opacity="1" stop-color="rgb(73.339844%, 3.730774%, 12.252808%)" offset="0.246094"/><stop stop-opacity="1" stop-color="rgb(73.538208%, 3.901672%, 12.294006%)" offset="0.25"/><stop stop-opacity="1" stop-color="rgb(73.735046%, 4.072571%, 12.333679%)" offset="0.253906"/><stop stop-opacity="1" stop-color="rgb(73.933411%, 4.243469%, 12.374878%)" offset="0.257812"/><stop stop-opacity="1" stop-color="rgb(74.131775%, 4.414368%, 12.414551%)" offset="0.261719"/><stop stop-opacity="1" stop-color="rgb(74.330139%, 4.586792%, 12.45575%)" offset="0.265625"/><stop stop-opacity="1" stop-color="rgb(74.526978%, 4.75769%, 12.495422%)" offset="0.269531"/><stop stop-opacity="1" stop-color="rgb(74.725342%, 4.928589%, 12.536621%)" offset="0.273438"/><stop stop-opacity="1" stop-color="rgb(74.923706%, 5.099487%, 12.576294%)" offset="0.277344"/><stop stop-opacity="1" stop-color="rgb(75.12207%, 5.270386%, 12.617493%)" offset="0.28125"/><stop stop-opacity="1" stop-color="rgb(75.318909%, 5.441284%, 12.657166%)" offset="0.285156"/><stop stop-opacity="1" stop-color="rgb(75.517273%, 5.612183%, 12.698364%)" offset="0.289062"/><stop stop-opacity="1" stop-color="rgb(75.715637%, 5.783081%, 12.739563%)" offset="0.292969"/><stop stop-opacity="1" stop-color="rgb(75.914001%, 5.953979%, 12.780762%)" offset="0.296875"/><stop stop-opacity="1" stop-color="rgb(76.11084%, 6.124878%, 12.820435%)" offset="0.300781"/><stop stop-opacity="1" stop-color="rgb(76.309204%, 6.295776%, 12.861633%)" offset="0.304688"/><stop stop-opacity="1" stop-color="rgb(76.507568%, 6.466675%, 12.901306%)" offset="0.308594"/><stop stop-opacity="1" stop-color="rgb(76.705933%, 6.639099%, 12.942505%)" offset="0.3125"/><stop stop-opacity="1" stop-color="rgb(76.902771%, 6.809998%, 12.982178%)" offset="0.316406"/><stop stop-opacity="1" stop-color="rgb(77.101135%, 6.980896%, 13.023376%)" offset="0.320312"/><stop stop-opacity="1" stop-color="rgb(77.2995%, 7.151794%, 13.063049%)" offset="0.324219"/><stop stop-opacity="1" stop-color="rgb(77.497864%, 7.322693%, 13.104248%)" offset="0.328125"/><stop stop-opacity="1" stop-color="rgb(77.694702%, 7.493591%, 13.143921%)" offset="0.332031"/><stop stop-opacity="1" stop-color="rgb(77.893066%, 7.66449%, 13.18512%)" offset="0.335937"/><stop stop-opacity="1" stop-color="rgb(78.091431%, 7.835388%, 13.224792%)" offset="0.339844"/><stop stop-opacity="1" stop-color="rgb(78.289795%, 8.006287%, 13.265991%)" offset="0.34375"/><stop stop-opacity="1" stop-color="rgb(78.486633%, 8.177185%, 13.305664%)" offset="0.347656"/><stop stop-opacity="1" stop-color="rgb(78.684998%, 8.348083%, 13.346863%)" offset="0.351562"/><stop stop-opacity="1" stop-color="rgb(78.883362%, 8.518982%, 13.386536%)" offset="0.355469"/><stop stop-opacity="1" stop-color="rgb(79.081726%, 8.68988%, 13.427734%)" offset="0.359375"/><stop stop-opacity="1" stop-color="rgb(79.278564%, 8.860779%, 13.468933%)" offset="0.363281"/><stop stop-opacity="1" stop-color="rgb(79.476929%, 9.033203%, 13.510132%)" offset="0.367187"/><stop stop-opacity="1" stop-color="rgb(79.675293%, 9.204102%, 13.549805%)" offset="0.371094"/><stop stop-opacity="1" stop-color="rgb(79.873657%, 9.375%, 13.591003%)" offset="0.375"/><stop stop-opacity="1" stop-color="rgb(80.070496%, 9.545898%, 13.630676%)" offset="0.378906"/><stop stop-opacity="1" stop-color="rgb(80.26886%, 9.716797%, 13.671875%)" offset="0.382812"/><stop stop-opacity="1" stop-color="rgb(80.467224%, 9.887695%, 13.711548%)" offset="0.386719"/><stop stop-opacity="1" stop-color="rgb(80.665588%, 10.058594%, 13.752747%)" offset="0.390625"/><stop stop-opacity="1" stop-color="rgb(80.862427%, 10.229492%, 13.792419%)" offset="0.394531"/><stop stop-opacity="1" stop-color="rgb(81.060791%, 10.400391%, 13.833618%)" offset="0.398437"/><stop stop-opacity="1" stop-color="rgb(81.259155%, 10.571289%, 13.873291%)" offset="0.402344"/><stop stop-opacity="1" stop-color="rgb(81.45752%, 10.742188%, 13.91449%)" offset="0.40625"/><stop stop-opacity="1" stop-color="rgb(81.654358%, 10.913086%, 13.954163%)" offset="0.410156"/><stop stop-opacity="1" stop-color="rgb(81.852722%, 11.08551%, 13.995361%)" offset="0.414062"/><stop stop-opacity="1" stop-color="rgb(82.051086%, 11.256409%, 14.035034%)" offset="0.417969"/><stop stop-opacity="1" stop-color="rgb(82.249451%, 11.427307%, 14.076233%)" offset="0.421875"/><stop stop-opacity="1" stop-color="rgb(82.446289%, 11.598206%, 14.115906%)" offset="0.425781"/><stop stop-opacity="1" stop-color="rgb(82.644653%, 11.769104%, 14.157104%)" offset="0.429687"/><stop stop-opacity="1" stop-color="rgb(82.843018%, 11.940002%, 14.196777%)" offset="0.433594"/><stop stop-opacity="1" stop-color="rgb(83.041382%, 12.110901%, 14.237976%)" offset="0.4375"/><stop stop-opacity="1" stop-color="rgb(83.23822%, 12.281799%, 14.279175%)" offset="0.441406"/><stop stop-opacity="1" stop-color="rgb(83.436584%, 12.452698%, 14.320374%)" offset="0.445312"/><stop stop-opacity="1" stop-color="rgb(83.634949%, 12.623596%, 14.360046%)" offset="0.449219"/><stop stop-opacity="1" stop-color="rgb(83.833313%, 12.794495%, 14.401245%)" offset="0.453125"/><stop stop-opacity="1" stop-color="rgb(84.030151%, 12.965393%, 14.440918%)" offset="0.457031"/><stop stop-opacity="1" stop-color="rgb(84.228516%, 13.137817%, 14.482117%)" offset="0.460937"/><stop stop-opacity="1" stop-color="rgb(84.42688%, 13.308716%, 14.52179%)" offset="0.464844"/><stop stop-opacity="1" stop-color="rgb(84.625244%, 13.479614%, 14.562988%)" offset="0.46875"/><stop stop-opacity="1" stop-color="rgb(84.822083%, 13.650513%, 14.602661%)" offset="0.472656"/><stop stop-opacity="1" stop-color="rgb(85.020447%, 13.821411%, 14.64386%)" offset="0.476562"/><stop stop-opacity="1" stop-color="rgb(85.218811%, 13.99231%, 14.683533%)" offset="0.480469"/><stop stop-opacity="1" stop-color="rgb(85.417175%, 14.163208%, 14.724731%)" offset="0.484375"/><stop stop-opacity="1" stop-color="rgb(85.614014%, 14.334106%, 14.764404%)" offset="0.488281"/><stop stop-opacity="1" stop-color="rgb(85.812378%, 14.505005%, 14.805603%)" offset="0.492188"/><stop stop-opacity="1" stop-color="rgb(86.010742%, 14.675903%, 14.845276%)" offset="0.496094"/><stop stop-opacity="1" stop-color="rgb(86.209106%, 14.846802%, 14.886475%)" offset="0.5"/><stop stop-opacity="1" stop-color="rgb(85.871887%, 14.949036%, 15.652466%)" offset="0.503906"/><stop stop-opacity="1" stop-color="rgb(85.536194%, 15.052795%, 16.418457%)" offset="0.507812"/><stop stop-opacity="1" stop-color="rgb(85.10437%, 15.142822%, 17.314148%)" offset="0.511719"/><stop stop-opacity="1" stop-color="rgb(84.672546%, 15.232849%, 18.209839%)" offset="0.515625"/><stop stop-opacity="1" stop-color="rgb(84.240723%, 15.322876%, 19.10553%)" offset="0.519531"/><stop stop-opacity="1" stop-color="rgb(83.808899%, 15.412903%, 20.001221%)" offset="0.523438"/><stop stop-opacity="1" stop-color="rgb(83.375549%, 15.50293%, 20.896912%)" offset="0.527344"/><stop stop-opacity="1" stop-color="rgb(82.943726%, 15.592957%, 21.792603%)" offset="0.53125"/><stop stop-opacity="1" stop-color="rgb(82.511902%, 15.682983%, 22.688293%)" offset="0.535156"/><stop stop-opacity="1" stop-color="rgb(82.080078%, 15.77301%, 23.583984%)" offset="0.539062"/><stop stop-opacity="1" stop-color="rgb(81.648254%, 15.863037%, 24.479675%)" offset="0.542969"/><stop stop-opacity="1" stop-color="rgb(81.216431%, 15.953064%, 25.375366%)" offset="0.546875"/><stop stop-opacity="1" stop-color="rgb(80.784607%, 16.043091%, 26.271057%)" offset="0.550781"/><stop stop-opacity="1" stop-color="rgb(80.352783%, 16.133118%, 27.166748%)" offset="0.554688"/><stop stop-opacity="1" stop-color="rgb(79.919434%, 16.223145%, 28.062439%)" offset="0.558594"/><stop stop-opacity="1" stop-color="rgb(79.48761%, 16.313171%, 28.95813%)" offset="0.5625"/><stop stop-opacity="1" stop-color="rgb(79.055786%, 16.403198%, 29.853821%)" offset="0.566406"/><stop stop-opacity="1" stop-color="rgb(78.623962%, 16.493225%, 30.751038%)" offset="0.570312"/><stop stop-opacity="1" stop-color="rgb(78.192139%, 16.583252%, 31.646729%)" offset="0.574219"/><stop stop-opacity="1" stop-color="rgb(77.760315%, 16.673279%, 32.542419%)" offset="0.578125"/><stop stop-opacity="1" stop-color="rgb(77.328491%, 16.763306%, 33.43811%)" offset="0.582031"/><stop stop-opacity="1" stop-color="rgb(76.896667%, 16.853333%, 34.333801%)" offset="0.585938"/><stop stop-opacity="1" stop-color="rgb(76.463318%, 16.943359%, 35.229492%)" offset="0.589844"/><stop stop-opacity="1" stop-color="rgb(76.031494%, 17.034912%, 36.125183%)" offset="0.59375"/><stop stop-opacity="1" stop-color="rgb(75.59967%, 17.124939%, 37.020874%)" offset="0.597656"/><stop stop-opacity="1" stop-color="rgb(75.167847%, 17.214966%, 37.916565%)" offset="0.601562"/><stop stop-opacity="1" stop-color="rgb(74.736023%, 17.304993%, 38.812256%)" offset="0.605469"/><stop stop-opacity="1" stop-color="rgb(74.304199%, 17.39502%, 39.707947%)" offset="0.609375"/><stop stop-opacity="1" stop-color="rgb(73.87085%, 17.485046%, 40.603638%)" offset="0.613281"/><stop stop-opacity="1" stop-color="rgb(73.439026%, 17.575073%, 41.499329%)" offset="0.617188"/><stop stop-opacity="1" stop-color="rgb(73.007202%, 17.6651%, 42.39502%)" offset="0.621094"/><stop stop-opacity="1" stop-color="rgb(72.575378%, 17.755127%, 43.29071%)" offset="0.625"/><stop stop-opacity="1" stop-color="rgb(72.143555%, 17.845154%, 44.186401%)" offset="0.628906"/><stop stop-opacity="1" stop-color="rgb(71.711731%, 17.935181%, 45.082092%)" offset="0.632813"/><stop stop-opacity="1" stop-color="rgb(71.279907%, 18.025208%, 45.977783%)" offset="0.636719"/><stop stop-opacity="1" stop-color="rgb(70.848083%, 18.115234%, 46.873474%)" offset="0.640625"/><stop stop-opacity="1" stop-color="rgb(70.414734%, 18.205261%, 47.769165%)" offset="0.644531"/><stop stop-opacity="1" stop-color="rgb(69.98291%, 18.295288%, 48.664856%)" offset="0.648438"/><stop stop-opacity="1" stop-color="rgb(69.551086%, 18.385315%, 49.560547%)" offset="0.652344"/><stop stop-opacity="1" stop-color="rgb(69.119263%, 18.475342%, 50.456238%)" offset="0.65625"/><stop stop-opacity="1" stop-color="rgb(68.687439%, 18.565369%, 51.351929%)" offset="0.660156"/><stop stop-opacity="1" stop-color="rgb(68.255615%, 18.655396%, 52.24762%)" offset="0.664062"/><stop stop-opacity="1" stop-color="rgb(67.823792%, 18.745422%, 53.143311%)" offset="0.667969"/><stop stop-opacity="1" stop-color="rgb(67.391968%, 18.836975%, 54.039001%)" offset="0.671875"/><stop stop-opacity="1" stop-color="rgb(66.958618%, 18.927002%, 54.934692%)" offset="0.675781"/><stop stop-opacity="1" stop-color="rgb(66.526794%, 19.017029%, 55.830383%)" offset="0.679688"/><stop stop-opacity="1" stop-color="rgb(66.094971%, 19.107056%, 56.726074%)" offset="0.683594"/><stop stop-opacity="1" stop-color="rgb(65.663147%, 19.197083%, 57.621765%)" offset="0.6875"/><stop stop-opacity="1" stop-color="rgb(65.231323%, 19.287109%, 58.517456%)" offset="0.691406"/><stop stop-opacity="1" stop-color="rgb(64.7995%, 19.377136%, 59.413147%)" offset="0.695313"/><stop stop-opacity="1" stop-color="rgb(64.367676%, 19.467163%, 60.308838%)" offset="0.699219"/><stop stop-opacity="1" stop-color="rgb(63.935852%, 19.55719%, 61.204529%)" offset="0.703125"/><stop stop-opacity="1" stop-color="rgb(63.502502%, 19.647217%, 62.10022%)" offset="0.707031"/><stop stop-opacity="1" stop-color="rgb(63.070679%, 19.737244%, 62.995911%)" offset="0.710938"/><stop stop-opacity="1" stop-color="rgb(62.638855%, 19.827271%, 63.891602%)" offset="0.714844"/><stop stop-opacity="1" stop-color="rgb(62.207031%, 19.917297%, 64.787292%)" offset="0.71875"/><stop stop-opacity="1" stop-color="rgb(61.775208%, 20.007324%, 65.682983%)" offset="0.722656"/><stop stop-opacity="1" stop-color="rgb(61.343384%, 20.097351%, 66.578674%)" offset="0.726562"/><stop stop-opacity="1" stop-color="rgb(60.91156%, 20.187378%, 67.474365%)" offset="0.730469"/><stop stop-opacity="1" stop-color="rgb(60.479736%, 20.277405%, 68.370056%)" offset="0.734375"/><stop stop-opacity="1" stop-color="rgb(60.046387%, 20.367432%, 69.265747%)" offset="0.738281"/><stop stop-opacity="1" stop-color="rgb(59.614563%, 20.457458%, 70.161438%)" offset="0.742188"/><stop stop-opacity="1" stop-color="rgb(59.182739%, 20.547485%, 71.057129%)" offset="0.746094"/><stop stop-opacity="1" stop-color="rgb(58.750916%, 20.639038%, 71.954346%)" offset="0.75"/><stop stop-opacity="1" stop-color="rgb(58.319092%, 20.729065%, 72.850037%)" offset="0.753906"/><stop stop-opacity="1" stop-color="rgb(57.887268%, 20.819092%, 73.745728%)" offset="0.757812"/><stop stop-opacity="1" stop-color="rgb(57.453918%, 20.909119%, 74.641418%)" offset="0.761719"/><stop stop-opacity="1" stop-color="rgb(57.022095%, 20.999146%, 75.537109%)" offset="0.765625"/><stop stop-opacity="1" stop-color="rgb(56.590271%, 21.089172%, 76.4328%)" offset="0.769531"/><stop stop-opacity="1" stop-color="rgb(56.158447%, 21.179199%, 77.328491%)" offset="0.773438"/><stop stop-opacity="1" stop-color="rgb(55.726624%, 21.269226%, 78.224182%)" offset="0.777344"/><stop stop-opacity="1" stop-color="rgb(55.2948%, 21.359253%, 79.119873%)" offset="0.78125"/><stop stop-opacity="1" stop-color="rgb(54.862976%, 21.44928%, 80.015564%)" offset="0.785156"/><stop stop-opacity="1" stop-color="rgb(54.431152%, 21.539307%, 80.911255%)" offset="0.789062"/><stop stop-opacity="1" stop-color="rgb(53.997803%, 21.629333%, 81.806946%)" offset="0.792969"/><stop stop-opacity="1" stop-color="rgb(53.565979%, 21.71936%, 82.702637%)" offset="0.796875"/><stop stop-opacity="1" stop-color="rgb(53.134155%, 21.809387%, 83.598328%)" offset="0.800781"/><stop stop-opacity="1" stop-color="rgb(52.702332%, 21.899414%, 84.494019%)" offset="0.804687"/><stop stop-opacity="1" stop-color="rgb(52.270508%, 21.989441%, 85.389709%)" offset="0.808594"/><stop stop-opacity="1" stop-color="rgb(51.838684%, 22.079468%, 86.2854%)" offset="0.8125"/><stop stop-opacity="1" stop-color="rgb(51.40686%, 22.169495%, 87.181091%)" offset="0.816406"/><stop stop-opacity="1" stop-color="rgb(50.975037%, 22.259521%, 88.076782%)" offset="0.820312"/><stop stop-opacity="1" stop-color="rgb(50.541687%, 22.349548%, 88.972473%)" offset="0.824219"/><stop stop-opacity="1" stop-color="rgb(50.109863%, 22.439575%, 89.868164%)" offset="0.828125"/><stop stop-opacity="1" stop-color="rgb(49.67804%, 22.529602%, 90.763855%)" offset="0.832031"/><stop stop-opacity="1" stop-color="rgb(49.246216%, 22.621155%, 91.659546%)" offset="0.835938"/><stop stop-opacity="1" stop-color="rgb(48.937988%, 22.685242%, 92.298889%)" offset="0.839844"/><stop stop-opacity="1" stop-color="rgb(48.629761%, 22.749329%, 92.939758%)" offset="0.84375"/><stop stop-opacity="1" stop-color="rgb(48.629761%, 22.749329%, 92.939758%)" offset="0.875"/><stop stop-opacity="1" stop-color="rgb(48.629761%, 22.749329%, 92.939758%)" offset="1"/></linearGradient><clipPath id="09ab8b3f72"><rect x="0" width="750" y="0" height="300"/></clipPath><clipPath id="0395b16650"><rect x="0" width="750" y="0" height="300"/></clipPath><clipPath id="e22cc950f7"><rect x="0" width="750" y="0" height="300"/></clipPath><mask id="2e13181a30"><g filter="url(#b30012a671)"><g transform="matrix(1, 0, 0, 1, 0, 0)"><g clip-path="url(#e22cc950f7)"><g transform="matrix(1, 0, 0, 1, 0, 0)"><g clip-path="url(#0395b16650)"><g fill="#000000" fill-opacity="1"><g transform="translate(120.878983, 204.309593)"><g><path d="M 61.171875 -108.328125 C 65.015625 -108.328125 67.847656 -108.003906 69.671875 -107.359375 C 71.492188 -106.722656 72.800781 -105.664062 73.59375 -104.1875 C 74.675781 -101.914062 75.21875 -98.859375 75.21875 -95.015625 L 75.21875 -37.828125 C 75.21875 -27.484375 71.472656 -18.34375 63.984375 -10.40625 C 56.503906 -2.476562 46.945312 1.484375 35.3125 1.484375 C 28.8125 1.484375 23.050781 0.0507812 18.03125 -2.8125 C 13.5 -5.269531 10.347656 -7.484375 8.578125 -9.453125 L 7.390625 -10.640625 C 3.941406 -14.285156 2.21875 -17.410156 2.21875 -20.015625 C 2.21875 -22.628906 3.941406 -25.707031 7.390625 -29.25 C 10.835938 -32.800781 13.890625 -34.578125 16.546875 -34.578125 C 19.210938 -34.578125 22.171875 -32.953125 25.421875 -29.703125 C 28.671875 -26.453125 32.191406 -24.828125 35.984375 -24.828125 C 39.773438 -24.828125 42.898438 -26.109375 45.359375 -28.671875 C 47.828125 -31.234375 49.0625 -34.628906 49.0625 -38.859375 L 49.0625 -94.140625 C 49.0625 -100.046875 50.046875 -103.835938 52.015625 -105.515625 C 54.285156 -107.390625 57.335938 -108.328125 61.171875 -108.328125 Z M 61.171875 -108.328125 "/></g></g></g><g fill="#000000" fill-opacity="1"><g transform="translate(204.230075, 204.309593)"><g><path d="M 40.484375 -0.296875 C 30.535156 -0.296875 22.285156 -4.0625 15.734375 -11.59375 C 9.179688 -19.132812 5.90625 -28.320312 5.90625 -39.15625 L 5.90625 -65.03125 C 5.90625 -67.394531 5.976562 -69.117188 6.125 -70.203125 C 6.28125 -71.285156 6.703125 -72.5625 7.390625 -74.03125 C 8.765625 -76.695312 12.609375 -78.03125 18.921875 -78.03125 C 25.816406 -78.03125 29.851562 -76.15625 31.03125 -72.40625 C 31.625 -70.832031 31.921875 -68.320312 31.921875 -64.875 L 31.921875 -39.015625 C 31.921875 -34.972656 33.078125 -31.816406 35.390625 -29.546875 C 37.703125 -27.285156 40.804688 -26.15625 44.703125 -26.15625 C 48.597656 -26.15625 51.75 -27.335938 54.15625 -29.703125 C 56.570312 -32.066406 57.78125 -35.171875 57.78125 -39.015625 L 57.78125 -65.171875 C 57.78125 -67.441406 57.851562 -69.140625 58 -70.265625 C 58.144531 -71.398438 58.613281 -72.707031 59.40625 -74.1875 C 60.6875 -76.75 64.476562 -78.03125 70.78125 -78.03125 C 76.988281 -78.03125 80.785156 -76.695312 82.171875 -74.03125 C 82.859375 -72.5625 83.273438 -71.257812 83.421875 -70.125 C 83.566406 -68.988281 83.640625 -67.289062 83.640625 -65.03125 L 83.640625 -12.703125 C 83.640625 -10.535156 83.566406 -8.882812 83.421875 -7.75 C 83.273438 -6.625 82.804688 -5.367188 82.015625 -3.984375 C 80.535156 -1.421875 76.742188 -0.140625 70.640625 -0.140625 C 64.628906 -0.140625 60.9375 -1.320312 59.5625 -3.6875 C 58.570312 -5.363281 58.078125 -7.382812 58.078125 -9.75 C 57.679688 -9.0625 56.789062 -8.078125 55.40625 -6.796875 C 54.03125 -5.515625 52.703125 -4.429688 51.421875 -3.546875 C 48.078125 -1.378906 44.429688 -0.296875 40.484375 -0.296875 Z M 40.484375 -0.296875 "/></g></g></g><g fill="#000000" fill-opacity="1"><g transform="translate(296.004947, 204.309593)"><g><path d="M 58.8125 -76.984375 C 60.6875 -76.398438 62.238281 -75.394531 63.46875 -73.96875 C 64.695312 -72.539062 65.3125 -70.25 65.3125 -67.09375 C 65.3125 -63.9375 64.375 -60.484375 62.5 -56.734375 C 60.632812 -52.992188 57.929688 -51.125 54.390625 -51.125 C 52.609375 -51.125 50.90625 -51.519531 49.28125 -52.3125 C 47.65625 -53.101562 45.507812 -53.5 42.84375 -53.5 C 40.1875 -53.5 37.703125 -52.5625 35.390625 -50.6875 C 33.078125 -48.8125 31.921875 -46.546875 31.921875 -43.890625 L 31.921875 -12.859375 C 31.921875 -10.585938 31.847656 -8.882812 31.703125 -7.75 C 31.554688 -6.625 31.085938 -5.320312 30.296875 -3.84375 C 28.816406 -1.28125 24.972656 0 18.765625 0 C 14.035156 0 10.640625 -0.835938 8.578125 -2.515625 C 6.992188 -3.890625 6.101562 -6.003906 5.90625 -8.859375 C 5.90625 -9.847656 5.90625 -11.28125 5.90625 -13.15625 L 5.90625 -65.03125 C 5.90625 -67.289062 5.976562 -68.988281 6.125 -70.125 C 6.28125 -71.257812 6.703125 -72.515625 7.390625 -73.890625 C 8.765625 -76.546875 12.609375 -77.875 18.921875 -77.875 C 24.828125 -77.875 28.519531 -76.742188 30 -74.484375 C 31.082031 -72.910156 31.625 -71.285156 31.625 -69.609375 C 32.113281 -70.296875 32.828125 -71.128906 33.765625 -72.109375 C 34.703125 -73.097656 36.695312 -74.429688 39.75 -76.109375 C 42.800781 -77.785156 45.484375 -78.625 47.796875 -78.625 C 50.117188 -78.625 52.066406 -78.5 53.640625 -78.25 C 55.222656 -78 56.945312 -77.578125 58.8125 -76.984375 Z M 58.8125 -76.984375 "/></g></g></g><g fill="#000000" fill-opacity="1"><g transform="translate(365.759779, 204.309593)"><g><path d="M 5.90625 -64.875 C 5.90625 -67.144531 5.976562 -68.84375 6.125 -69.96875 C 6.28125 -71.101562 6.703125 -72.410156 7.390625 -73.890625 C 8.765625 -76.453125 12.609375 -77.734375 18.921875 -77.734375 C 23.648438 -77.734375 27 -76.894531 28.96875 -75.21875 C 30.644531 -73.84375 31.53125 -71.722656 31.625 -68.859375 C 31.71875 -67.878906 31.765625 -66.453125 31.765625 -64.578125 L 31.765625 -12.859375 C 31.765625 -10.585938 31.691406 -8.882812 31.546875 -7.75 C 31.398438 -6.625 30.929688 -5.320312 30.140625 -3.84375 C 28.859375 -1.28125 25.066406 0 18.765625 0 C 12.554688 0 8.765625 -1.328125 7.390625 -3.984375 C 6.703125 -5.460938 6.28125 -6.742188 6.125 -7.828125 C 5.976562 -8.910156 5.90625 -10.632812 5.90625 -13 Z M 30.21875 -92.28125 C 29.476562 -90.851562 28.171875 -89.84375 26.296875 -89.25 C 24.429688 -88.664062 21.945312 -88.375 18.84375 -88.375 C 15.738281 -88.375 13.25 -88.664062 11.375 -89.25 C 9.507812 -89.84375 8.207031 -90.878906 7.46875 -92.359375 C 6.726562 -93.835938 6.28125 -95.144531 6.125 -96.28125 C 5.976562 -97.414062 5.90625 -99.113281 5.90625 -101.375 C 5.90625 -103.644531 5.976562 -105.34375 6.125 -106.46875 C 6.28125 -107.601562 6.703125 -108.863281 7.390625 -110.25 C 8.765625 -112.90625 12.609375 -114.234375 18.921875 -114.234375 C 25.117188 -114.234375 28.859375 -112.90625 30.140625 -110.25 C 30.929688 -108.769531 31.398438 -107.460938 31.546875 -106.328125 C 31.691406 -105.191406 31.765625 -103.488281 31.765625 -101.21875 C 31.765625 -98.957031 31.691406 -97.257812 31.546875 -96.125 C 31.398438 -95 30.957031 -93.71875 30.21875 -92.28125 Z M 30.21875 -92.28125 "/></g></g></g><g fill="#000000" fill-opacity="1"><g transform="translate(405.661949, 204.309593)"><g><path d="M 48.625 -77.734375 C 57.382812 -77.734375 65.4375 -73.84375 72.78125 -66.0625 C 80.125 -58.28125 83.796875 -49.238281 83.796875 -38.9375 C 83.796875 -28.644531 80.148438 -19.628906 72.859375 -11.890625 C 65.566406 -4.160156 57.734375 -0.296875 49.359375 -0.296875 C 40.984375 -0.296875 35.023438 -2.660156 31.484375 -7.390625 C 30.691406 -2.554688 26.453125 -0.140625 18.765625 -0.140625 C 12.554688 -0.140625 8.765625 -1.472656 7.390625 -4.140625 C 6.703125 -5.617188 6.28125 -6.921875 6.125 -8.046875 C 5.976562 -9.179688 5.90625 -10.882812 5.90625 -13.15625 L 5.90625 -101.375 C 5.90625 -103.644531 5.976562 -105.34375 6.125 -106.46875 C 6.28125 -107.601562 6.703125 -108.863281 7.390625 -110.25 C 8.765625 -112.90625 12.609375 -114.234375 18.921875 -114.234375 C 25.117188 -114.234375 28.859375 -112.90625 30.140625 -110.25 C 30.929688 -108.769531 31.398438 -107.460938 31.546875 -106.328125 C 31.691406 -105.191406 31.765625 -103.492188 31.765625 -101.234375 L 31.765625 -70.484375 C 35.710938 -75.316406 41.332031 -77.734375 48.625 -77.734375 Z M 35.6875 -30 C 38.101562 -27.34375 41.132812 -26.015625 44.78125 -26.015625 C 48.425781 -26.015625 51.53125 -27.34375 54.09375 -30 C 56.65625 -32.65625 57.9375 -35.609375 57.9375 -38.859375 C 57.9375 -42.117188 56.753906 -45.101562 54.390625 -47.8125 C 52.023438 -50.519531 48.867188 -51.875 44.921875 -51.875 C 40.984375 -51.875 37.851562 -50.492188 35.53125 -47.734375 C 33.21875 -44.972656 32.0625 -41.988281 32.0625 -38.78125 C 32.0625 -35.582031 33.269531 -32.65625 35.6875 -30 Z M 35.6875 -30 "/></g></g></g><g fill="#000000" fill-opacity="1"><g transform="translate(495.367817, 204.309593)"><g><path d="M 5.90625 -101.53125 C 5.90625 -103.789062 5.976562 -105.488281 6.125 -106.625 C 6.28125 -107.757812 6.703125 -109.066406 7.390625 -110.546875 C 8.765625 -113.203125 12.609375 -114.53125 18.921875 -114.53125 C 24.929688 -114.53125 28.671875 -113.203125 30.140625 -110.546875 C 30.929688 -109.066406 31.398438 -107.734375 31.546875 -106.546875 C 31.691406 -105.367188 31.765625 -103.644531 31.765625 -101.375 L 31.765625 -32.953125 C 31.765625 -29.410156 32.0625 -27.171875 32.65625 -26.234375 C 33.25 -25.296875 34.554688 -24.828125 36.578125 -24.828125 C 38.597656 -24.828125 39.953125 -24.753906 40.640625 -24.609375 C 41.328125 -24.460938 42.164062 -24.039062 43.15625 -23.34375 C 45.125 -22.0625 46.109375 -18.566406 46.109375 -12.859375 C 46.109375 -6.648438 45.125 -2.859375 43.15625 -1.484375 C 40.59375 0.296875 34.484375 0.59375 24.828125 -0.59375 C 17.242188 -1.570312 12.316406 -4.082031 10.046875 -8.125 C 7.285156 -12.957031 5.90625 -20.644531 5.90625 -31.1875 Z M 5.90625 -101.53125 "/></g></g></g><g fill="#000000" fill-opacity="1"><g transform="translate(544.432651, 204.309593)"><g><path d="M 80.984375 -48.25 C 80.984375 -42.1875 79.476562 -37.703125 76.46875 -34.796875 C 73.46875 -31.890625 70.144531 -30.4375 66.5 -30.4375 L 31.484375 -30.4375 C 31.484375 -27.6875 33.109375 -25.375 36.359375 -23.5 C 39.609375 -21.625 42.859375 -20.6875 46.109375 -20.6875 C 51.816406 -20.6875 56.300781 -21.28125 59.5625 -22.46875 L 61.1875 -23.046875 C 63.550781 -24.128906 65.519531 -24.671875 67.09375 -24.671875 C 70.25 -24.671875 72.957031 -22.457031 75.21875 -18.03125 C 76.5 -15.375 77.140625 -13.109375 77.140625 -11.234375 C 77.140625 -2.460938 66.648438 1.921875 45.671875 1.921875 C 38.378906 1.921875 31.898438 0.664062 26.234375 -1.84375 C 20.566406 -4.351562 16.15625 -7.679688 13 -11.828125 C 6.789062 -19.804688 3.6875 -28.722656 3.6875 -38.578125 C 3.6875 -50.984375 7.703125 -60.90625 15.734375 -68.34375 C 23.765625 -75.78125 33.789062 -79.5 45.8125 -79.5 C 59.507812 -79.5 69.554688 -74.675781 75.953125 -65.03125 C 79.304688 -59.90625 80.984375 -54.3125 80.984375 -48.25 Z M 49.796875 -43.890625 C 53.546875 -43.890625 55.421875 -45.46875 55.421875 -48.625 C 55.421875 -50.882812 54.554688 -52.703125 52.828125 -54.078125 C 51.109375 -55.460938 48.644531 -56.15625 45.4375 -56.15625 C 42.238281 -56.15625 39.0625 -54.847656 35.90625 -52.234375 C 32.757812 -49.628906 31.1875 -46.847656 31.1875 -43.890625 Z M 49.796875 -43.890625 "/></g></g></g></g></g></g></g></g></mask><clipPath id="bd0b8f4f8e"><path d="M 0 0 L 750 0 L 750 300 L 0 300 Z M 0 0 " clip-rule="nonzero"/></clipPath><clipPath id="92fd951258"><rect x="0" width="750" y="0" height="300"/></clipPath><clipPath id="b65d60b5e7"><rect x="0" width="750" y="0" height="300"/></clipPath><clipPath id="00bdb3eff0"><rect x="0" width="750" y="0" height="300"/></clipPath><clipPath id="db310424a7"><path d="M 368 87 L 399 87 L 399 118 L 368 118 Z M 368 87 " clip-rule="nonzero"/></clipPath><clipPath id="0612247c90"><path d="M 382.535156 81.742188 L 404.945312 101.777344 L 384.90625 124.1875 L 362.496094 104.148438 Z M 382.535156 81.742188 " clip-rule="nonzero"/></clipPath><clipPath id="9e89cfbb42"><path d="M 393.738281 91.757812 C 387.550781 86.226562 378.046875 86.757812 372.515625 92.945312 C 366.984375 99.132812 367.515625 108.636719 373.703125 114.167969 C 379.890625 119.703125 389.394531 119.171875 394.925781 112.980469 C 400.457031 106.792969 399.925781 97.292969 393.738281 91.757812 Z M 393.738281 91.757812 " clip-rule="nonzero"/></clipPath><clipPath id="d6a521838c"><path d="M 0 0 L 31 0 L 31 31 L 0 31 Z M 0 0 " clip-rule="nonzero"/></clipPath><clipPath id="3b5f7c58f8"><path d="M 14.535156 -5.257812 L 36.945312 14.777344 L 16.90625 37.1875 L -5.503906 17.148438 Z M 14.535156 -5.257812 " clip-rule="nonzero"/></clipPath><clipPath id="b0af41d278"><path d="M 25.738281 4.757812 C 19.550781 -0.773438 10.046875 -0.242188 4.515625 5.945312 C -1.015625 12.132812 -0.484375 21.636719 5.703125 27.167969 C 11.890625 32.703125 21.394531 32.171875 26.925781 25.980469 C 32.457031 19.792969 31.925781 10.292969 25.738281 4.757812 Z M 25.738281 4.757812 " clip-rule="nonzero"/></clipPath><clipPath id="3ff2811d2e"><path d="M 14.535156 -5.257812 L 36.945312 14.777344 L 16.90625 37.1875 L -5.503906 17.148438 Z M 14.535156 -5.257812 " clip-rule="nonzero"/></clipPath><clipPath id="3f1c8c13d9"><path d="M 14.535156 -5.257812 L 36.945312 14.777344 L 16.90625 37.1875 L -5.503906 17.148438 Z M 14.535156 -5.257812 " clip-rule="nonzero"/></clipPath><linearGradient x1="-73.267708" gradientTransform="matrix(0.0875388, 0.0782668, -0.0782668, 0.0875388, 14.533968, -5.259557)" y1="128" x2="329.267675" gradientUnits="userSpaceOnUse" y2="128" id="219fb42404"><stop stop-opacity="1" stop-color="rgb(69.018555%, 0%, 11.369324%)" offset="0"/><stop stop-opacity="1" stop-color="rgb(69.018555%, 0%, 11.369324%)" offset="0.125"/><stop stop-opacity="1" stop-color="rgb(69.166565%, 0.128174%, 11.399841%)" offset="0.1875"/><stop stop-opacity="1" stop-color="rgb(69.528198%, 0.439453%, 11.473083%)" offset="0.191406"/><stop stop-opacity="1" stop-color="rgb(69.740295%, 0.622559%, 11.517334%)" offset="0.195312"/><stop stop-opacity="1" stop-color="rgb(69.952393%, 0.805664%, 11.560059%)" offset="0.199219"/><stop stop-opacity="1" stop-color="rgb(70.16449%, 0.98877%, 11.604309%)" offset="0.203125"/><stop stop-opacity="1" stop-color="rgb(70.376587%, 1.171875%, 11.647034%)" offset="0.207031"/><stop stop-opacity="1" stop-color="rgb(70.588684%, 1.35498%, 11.689758%)" offset="0.210938"/><stop stop-opacity="1" stop-color="rgb(70.799255%, 1.538086%, 11.732483%)" offset="0.214844"/><stop stop-opacity="1" stop-color="rgb(71.011353%, 1.721191%, 11.776733%)" offset="0.21875"/><stop stop-opacity="1" stop-color="rgb(71.22345%, 1.902771%, 11.819458%)" offset="0.222656"/><stop stop-opacity="1" stop-color="rgb(71.435547%, 2.085876%, 11.863708%)" offset="0.226562"/><stop stop-opacity="1" stop-color="rgb(71.647644%, 2.268982%, 11.906433%)" offset="0.230469"/><stop stop-opacity="1" stop-color="rgb(71.859741%, 2.452087%, 11.950684%)" offset="0.234375"/><stop stop-opacity="1" stop-color="rgb(72.071838%, 2.635193%, 11.993408%)" offset="0.238281"/><stop stop-opacity="1" stop-color="rgb(72.283936%, 2.818298%, 12.037659%)" offset="0.242188"/><stop stop-opacity="1" stop-color="rgb(72.494507%, 3.001404%, 12.080383%)" offset="0.246094"/><stop stop-opacity="1" stop-color="rgb(72.706604%, 3.184509%, 12.124634%)" offset="0.25"/><stop stop-opacity="1" stop-color="rgb(72.918701%, 3.367615%, 12.167358%)" offset="0.253906"/><stop stop-opacity="1" stop-color="rgb(73.130798%, 3.55072%, 12.210083%)" offset="0.257812"/><stop stop-opacity="1" stop-color="rgb(73.342896%, 3.733826%, 12.252808%)" offset="0.261719"/><stop stop-opacity="1" stop-color="rgb(73.554993%, 3.916931%, 12.297058%)" offset="0.265625"/><stop stop-opacity="1" stop-color="rgb(73.76709%, 4.100037%, 12.339783%)" offset="0.269531"/><stop stop-opacity="1" stop-color="rgb(73.979187%, 4.283142%, 12.384033%)" offset="0.273438"/><stop stop-opacity="1" stop-color="rgb(74.189758%, 4.466248%, 12.426758%)" offset="0.277344"/><stop stop-opacity="1" stop-color="rgb(74.401855%, 4.649353%, 12.471008%)" offset="0.28125"/><stop stop-opacity="1" stop-color="rgb(74.613953%, 4.832458%, 12.513733%)" offset="0.285156"/><stop stop-opacity="1" stop-color="rgb(74.82605%, 5.015564%, 12.557983%)" offset="0.289062"/><stop stop-opacity="1" stop-color="rgb(75.038147%, 5.198669%, 12.600708%)" offset="0.292969"/><stop stop-opacity="1" stop-color="rgb(75.250244%, 5.381775%, 12.644958%)" offset="0.296875"/><stop stop-opacity="1" stop-color="rgb(75.462341%, 5.56488%, 12.687683%)" offset="0.300781"/><stop stop-opacity="1" stop-color="rgb(75.674438%, 5.747986%, 12.730408%)" offset="0.304688"/><stop stop-opacity="1" stop-color="rgb(75.88501%, 5.929565%, 12.773132%)" offset="0.308594"/><stop stop-opacity="1" stop-color="rgb(76.097107%, 6.112671%, 12.817383%)" offset="0.3125"/><stop stop-opacity="1" stop-color="rgb(76.309204%, 6.295776%, 12.860107%)" offset="0.316406"/><stop stop-opacity="1" stop-color="rgb(76.521301%, 6.478882%, 12.904358%)" offset="0.320313"/><stop stop-opacity="1" stop-color="rgb(76.733398%, 6.661987%, 12.947083%)" offset="0.324219"/><stop stop-opacity="1" stop-color="rgb(76.945496%, 6.845093%, 12.991333%)" offset="0.328125"/><stop stop-opacity="1" stop-color="rgb(77.157593%, 7.028198%, 13.034058%)" offset="0.332031"/><stop stop-opacity="1" stop-color="rgb(77.36969%, 7.211304%, 13.078308%)" offset="0.335937"/><stop stop-opacity="1" stop-color="rgb(77.580261%, 7.394409%, 13.121033%)" offset="0.339844"/><stop stop-opacity="1" stop-color="rgb(77.792358%, 7.577515%, 13.165283%)" offset="0.34375"/><stop stop-opacity="1" stop-color="rgb(78.004456%, 7.76062%, 13.208008%)" offset="0.347656"/><stop stop-opacity="1" stop-color="rgb(78.216553%, 7.943726%, 13.250732%)" offset="0.351563"/><stop stop-opacity="1" stop-color="rgb(78.42865%, 8.126831%, 13.293457%)" offset="0.355469"/><stop stop-opacity="1" stop-color="rgb(78.640747%, 8.309937%, 13.337708%)" offset="0.359375"/><stop stop-opacity="1" stop-color="rgb(78.852844%, 8.493042%, 13.380432%)" offset="0.363281"/><stop stop-opacity="1" stop-color="rgb(79.064941%, 8.676147%, 13.424683%)" offset="0.367187"/><stop stop-opacity="1" stop-color="rgb(79.275513%, 8.859253%, 13.467407%)" offset="0.371094"/><stop stop-opacity="1" stop-color="rgb(79.48761%, 9.042358%, 13.511658%)" offset="0.375"/><stop stop-opacity="1" stop-color="rgb(79.699707%, 9.225464%, 13.554382%)" offset="0.378906"/><stop stop-opacity="1" stop-color="rgb(79.911804%, 9.408569%, 13.598633%)" offset="0.382813"/><stop stop-opacity="1" stop-color="rgb(80.123901%, 9.591675%, 13.641357%)" offset="0.386719"/><stop stop-opacity="1" stop-color="rgb(80.335999%, 9.77478%, 13.685608%)" offset="0.390625"/><stop stop-opacity="1" stop-color="rgb(80.548096%, 9.957886%, 13.728333%)" offset="0.394531"/><stop stop-opacity="1" stop-color="rgb(80.760193%, 10.140991%, 13.771057%)" offset="0.398437"/><stop stop-opacity="1" stop-color="rgb(80.970764%, 10.322571%, 13.813782%)" offset="0.402344"/><stop stop-opacity="1" stop-color="rgb(81.182861%, 10.505676%, 13.858032%)" offset="0.40625"/><stop stop-opacity="1" stop-color="rgb(81.394958%, 10.688782%, 13.900757%)" offset="0.410156"/><stop stop-opacity="1" stop-color="rgb(81.607056%, 10.871887%, 13.945007%)" offset="0.414063"/><stop stop-opacity="1" stop-color="rgb(81.819153%, 11.054993%, 13.987732%)" offset="0.417969"/><stop stop-opacity="1" stop-color="rgb(82.03125%, 11.238098%, 14.031982%)" offset="0.421875"/><stop stop-opacity="1" stop-color="rgb(82.243347%, 11.421204%, 14.074707%)" offset="0.425781"/><stop stop-opacity="1" stop-color="rgb(82.455444%, 11.604309%, 14.118958%)" offset="0.429687"/><stop stop-opacity="1" stop-color="rgb(82.666016%, 11.787415%, 14.161682%)" offset="0.433594"/><stop stop-opacity="1" stop-color="rgb(82.878113%, 11.97052%, 14.205933%)" offset="0.4375"/><stop stop-opacity="1" stop-color="rgb(83.09021%, 12.153625%, 14.248657%)" offset="0.441406"/><stop stop-opacity="1" stop-color="rgb(83.302307%, 12.336731%, 14.291382%)" offset="0.445313"/><stop stop-opacity="1" stop-color="rgb(83.514404%, 12.519836%, 14.334106%)" offset="0.449219"/><stop stop-opacity="1" stop-color="rgb(83.726501%, 12.702942%, 14.378357%)" offset="0.453125"/><stop stop-opacity="1" stop-color="rgb(83.938599%, 12.886047%, 14.421082%)" offset="0.457031"/><stop stop-opacity="1" stop-color="rgb(84.150696%, 13.069153%, 14.465332%)" offset="0.460937"/><stop stop-opacity="1" stop-color="rgb(84.361267%, 13.252258%, 14.508057%)" offset="0.464844"/><stop stop-opacity="1" stop-color="rgb(84.573364%, 13.435364%, 14.552307%)" offset="0.46875"/><stop stop-opacity="1" stop-color="rgb(84.785461%, 13.618469%, 14.595032%)" offset="0.472656"/><stop stop-opacity="1" stop-color="rgb(84.997559%, 13.801575%, 14.639282%)" offset="0.476563"/><stop stop-opacity="1" stop-color="rgb(85.209656%, 13.98468%, 14.682007%)" offset="0.480469"/><stop stop-opacity="1" stop-color="rgb(85.421753%, 14.167786%, 14.726257%)" offset="0.484375"/><stop stop-opacity="1" stop-color="rgb(85.63385%, 14.349365%, 14.768982%)" offset="0.488281"/><stop stop-opacity="1" stop-color="rgb(85.845947%, 14.532471%, 14.813232%)" offset="0.492187"/><stop stop-opacity="1" stop-color="rgb(86.056519%, 14.715576%, 14.855957%)" offset="0.496094"/><stop stop-opacity="1" stop-color="rgb(86.268616%, 14.898682%, 14.898682%)" offset="0.5"/><stop stop-opacity="1" stop-color="rgb(85.806274%, 14.994812%, 15.856934%)" offset="0.503906"/><stop stop-opacity="1" stop-color="rgb(85.343933%, 15.092468%, 16.816711%)" offset="0.507812"/><stop stop-opacity="1" stop-color="rgb(84.881592%, 15.188599%, 17.774963%)" offset="0.511719"/><stop stop-opacity="1" stop-color="rgb(84.41925%, 15.284729%, 18.733215%)" offset="0.515625"/><stop stop-opacity="1" stop-color="rgb(83.956909%, 15.380859%, 19.691467%)" offset="0.519531"/><stop stop-opacity="1" stop-color="rgb(83.494568%, 15.478516%, 20.651245%)" offset="0.523438"/><stop stop-opacity="1" stop-color="rgb(83.032227%, 15.574646%, 21.609497%)" offset="0.527344"/><stop stop-opacity="1" stop-color="rgb(82.569885%, 15.670776%, 22.569275%)" offset="0.53125"/><stop stop-opacity="1" stop-color="rgb(82.107544%, 15.766907%, 23.527527%)" offset="0.535156"/><stop stop-opacity="1" stop-color="rgb(81.645203%, 15.863037%, 24.485779%)" offset="0.539062"/><stop stop-opacity="1" stop-color="rgb(81.182861%, 15.959167%, 25.444031%)" offset="0.542969"/><stop stop-opacity="1" stop-color="rgb(80.72052%, 16.056824%, 26.403809%)" offset="0.546875"/><stop stop-opacity="1" stop-color="rgb(80.258179%, 16.152954%, 27.362061%)" offset="0.550781"/><stop stop-opacity="1" stop-color="rgb(79.795837%, 16.249084%, 28.320312%)" offset="0.554688"/><stop stop-opacity="1" stop-color="rgb(79.333496%, 16.345215%, 29.278564%)" offset="0.558594"/><stop stop-opacity="1" stop-color="rgb(78.871155%, 16.442871%, 30.238342%)" offset="0.5625"/><stop stop-opacity="1" stop-color="rgb(78.408813%, 16.539001%, 31.196594%)" offset="0.566406"/><stop stop-opacity="1" stop-color="rgb(77.946472%, 16.635132%, 32.154846%)" offset="0.570312"/><stop stop-opacity="1" stop-color="rgb(77.484131%, 16.731262%, 33.113098%)" offset="0.574219"/><stop stop-opacity="1" stop-color="rgb(77.02179%, 16.827393%, 34.072876%)" offset="0.578125"/><stop stop-opacity="1" stop-color="rgb(76.559448%, 16.923523%, 35.031128%)" offset="0.582031"/><stop stop-opacity="1" stop-color="rgb(76.097107%, 17.021179%, 35.98938%)" offset="0.585938"/><stop stop-opacity="1" stop-color="rgb(75.634766%, 17.11731%, 36.947632%)" offset="0.589844"/><stop stop-opacity="1" stop-color="rgb(75.172424%, 17.21344%, 37.90741%)" offset="0.59375"/><stop stop-opacity="1" stop-color="rgb(74.710083%, 17.30957%, 38.865662%)" offset="0.597656"/><stop stop-opacity="1" stop-color="rgb(74.247742%, 17.407227%, 39.825439%)" offset="0.601562"/><stop stop-opacity="1" stop-color="rgb(73.7854%, 17.503357%, 40.783691%)" offset="0.605469"/><stop stop-opacity="1" stop-color="rgb(73.323059%, 17.599487%, 41.741943%)" offset="0.609375"/><stop stop-opacity="1" stop-color="rgb(72.860718%, 17.695618%, 42.700195%)" offset="0.613281"/><stop stop-opacity="1" stop-color="rgb(72.398376%, 17.791748%, 43.659973%)" offset="0.617188"/><stop stop-opacity="1" stop-color="rgb(71.934509%, 17.887878%, 44.618225%)" offset="0.621094"/><stop stop-opacity="1" stop-color="rgb(71.472168%, 17.985535%, 45.576477%)" offset="0.625"/><stop stop-opacity="1" stop-color="rgb(71.009827%, 18.081665%, 46.534729%)" offset="0.628906"/><stop stop-opacity="1" stop-color="rgb(70.547485%, 18.177795%, 47.494507%)" offset="0.632812"/><stop stop-opacity="1" stop-color="rgb(70.085144%, 18.273926%, 48.452759%)" offset="0.636719"/><stop stop-opacity="1" stop-color="rgb(69.622803%, 18.370056%, 49.411011%)" offset="0.640625"/><stop stop-opacity="1" stop-color="rgb(69.160461%, 18.466187%, 50.369263%)" offset="0.644531"/><stop stop-opacity="1" stop-color="rgb(68.69812%, 18.563843%, 51.329041%)" offset="0.648438"/><stop stop-opacity="1" stop-color="rgb(68.235779%, 18.659973%, 52.287292%)" offset="0.652344"/><stop stop-opacity="1" stop-color="rgb(67.773438%, 18.756104%, 53.245544%)" offset="0.65625"/><stop stop-opacity="1" stop-color="rgb(67.311096%, 18.852234%, 54.203796%)" offset="0.660156"/><stop stop-opacity="1" stop-color="rgb(66.848755%, 18.94989%, 55.163574%)" offset="0.664062"/><stop stop-opacity="1" stop-color="rgb(66.386414%, 19.046021%, 56.121826%)" offset="0.667969"/><stop stop-opacity="1" stop-color="rgb(65.924072%, 19.142151%, 57.081604%)" offset="0.671875"/><stop stop-opacity="1" stop-color="rgb(65.461731%, 19.238281%, 58.039856%)" offset="0.675781"/><stop stop-opacity="1" stop-color="rgb(64.99939%, 19.334412%, 58.998108%)" offset="0.679688"/><stop stop-opacity="1" stop-color="rgb(64.537048%, 19.430542%, 59.95636%)" offset="0.683594"/><stop stop-opacity="1" stop-color="rgb(64.074707%, 19.528198%, 60.916138%)" offset="0.6875"/><stop stop-opacity="1" stop-color="rgb(63.612366%, 19.624329%, 61.87439%)" offset="0.691406"/><stop stop-opacity="1" stop-color="rgb(63.150024%, 19.720459%, 62.832642%)" offset="0.695312"/><stop stop-opacity="1" stop-color="rgb(62.687683%, 19.816589%, 63.790894%)" offset="0.699219"/><stop stop-opacity="1" stop-color="rgb(62.225342%, 19.914246%, 64.750671%)" offset="0.703125"/><stop stop-opacity="1" stop-color="rgb(61.763%, 20.010376%, 65.708923%)" offset="0.707031"/><stop stop-opacity="1" stop-color="rgb(61.300659%, 20.106506%, 66.667175%)" offset="0.710938"/><stop stop-opacity="1" stop-color="rgb(60.838318%, 20.202637%, 67.625427%)" offset="0.714844"/><stop stop-opacity="1" stop-color="rgb(60.375977%, 20.298767%, 68.585205%)" offset="0.71875"/><stop stop-opacity="1" stop-color="rgb(59.913635%, 20.394897%, 69.543457%)" offset="0.722656"/><stop stop-opacity="1" stop-color="rgb(59.451294%, 20.492554%, 70.501709%)" offset="0.726562"/><stop stop-opacity="1" stop-color="rgb(58.988953%, 20.588684%, 71.459961%)" offset="0.730469"/><stop stop-opacity="1" stop-color="rgb(58.526611%, 20.684814%, 72.419739%)" offset="0.734375"/><stop stop-opacity="1" stop-color="rgb(58.06427%, 20.780945%, 73.377991%)" offset="0.738281"/><stop stop-opacity="1" stop-color="rgb(57.601929%, 20.878601%, 74.337769%)" offset="0.742188"/><stop stop-opacity="1" stop-color="rgb(57.139587%, 20.974731%, 75.296021%)" offset="0.746094"/><stop stop-opacity="1" stop-color="rgb(56.677246%, 21.070862%, 76.254272%)" offset="0.75"/><stop stop-opacity="1" stop-color="rgb(56.214905%, 21.166992%, 77.212524%)" offset="0.753906"/><stop stop-opacity="1" stop-color="rgb(55.752563%, 21.263123%, 78.172302%)" offset="0.757812"/><stop stop-opacity="1" stop-color="rgb(55.288696%, 21.359253%, 79.130554%)" offset="0.761719"/><stop stop-opacity="1" stop-color="rgb(54.826355%, 21.456909%, 80.088806%)" offset="0.765625"/><stop stop-opacity="1" stop-color="rgb(54.364014%, 21.55304%, 81.047058%)" offset="0.769531"/><stop stop-opacity="1" stop-color="rgb(53.901672%, 21.64917%, 82.006836%)" offset="0.773438"/><stop stop-opacity="1" stop-color="rgb(53.439331%, 21.7453%, 82.965088%)" offset="0.777344"/><stop stop-opacity="1" stop-color="rgb(52.97699%, 21.842957%, 83.92334%)" offset="0.78125"/><stop stop-opacity="1" stop-color="rgb(52.514648%, 21.939087%, 84.881592%)" offset="0.785156"/><stop stop-opacity="1" stop-color="rgb(52.052307%, 22.035217%, 85.84137%)" offset="0.789062"/><stop stop-opacity="1" stop-color="rgb(51.589966%, 22.131348%, 86.799622%)" offset="0.792969"/><stop stop-opacity="1" stop-color="rgb(51.127625%, 22.227478%, 87.757874%)" offset="0.796875"/><stop stop-opacity="1" stop-color="rgb(50.665283%, 22.323608%, 88.716125%)" offset="0.800781"/><stop stop-opacity="1" stop-color="rgb(50.202942%, 22.421265%, 89.675903%)" offset="0.804688"/><stop stop-opacity="1" stop-color="rgb(49.740601%, 22.517395%, 90.634155%)" offset="0.808594"/><stop stop-opacity="1" stop-color="rgb(49.278259%, 22.613525%, 91.593933%)" offset="0.8125"/><stop stop-opacity="1" stop-color="rgb(48.953247%, 22.680664%, 92.266846%)" offset="0.816406"/><stop stop-opacity="1" stop-color="rgb(48.629761%, 22.749329%, 92.939758%)" offset="0.820312"/><stop stop-opacity="1" stop-color="rgb(48.629761%, 22.749329%, 92.939758%)" offset="0.828125"/><stop stop-opacity="1" stop-color="rgb(48.629761%, 22.749329%, 92.939758%)" offset="0.84375"/><stop stop-opacity="1" stop-color="rgb(48.629761%, 22.749329%, 92.939758%)" offset="0.875"/><stop stop-opacity="1" stop-color="rgb(48.629761%, 22.749329%, 92.939758%)" offset="1"/></linearGradient><clipPath id="43b6e52816"><rect x="0" width="31" y="0" height="31"/></clipPath><clipPath id="d6a4263495"><rect x="0" width="750" y="0" height="300"/></clipPath></defs><g transform="matrix(1, 0, 0, 1, 0, 0)"><g clip-path="url(#d6a4263495)"><g transform="matrix(1, 0, 0, 1, 0, 0)"><g clip-path="url(#00bdb3eff0)"><g transform="matrix(1, 0, 0, 1, 0, 0)"><g clip-path="url(#b65d60b5e7)"><g mask="url(#2e13181a30)"><g transform="matrix(1, 0, 0, 1, 0, 0)"><g clip-path="url(#92fd951258)"><g clip-path="url(#bd0b8f4f8e)"><rect x="-558.12" fill="url(#eab413d0d8)" width="1866.24" y="-223.247991" height="746.49597"/></g></g></g></g></g></g></g></g><g clip-path="url(#db310424a7)"><g clip-path="url(#0612247c90)"><g clip-path="url(#9e89cfbb42)"><g transform="matrix(1, 0, 0, 1, 368, 87)"><g clip-path="url(#43b6e52816)"><g clip-path="url(#d6a521838c)"><g clip-path="url(#3b5f7c58f8)"><g clip-path="url(#b0af41d278)"><g clip-path="url(#3ff2811d2e)"><g clip-path="url(#3f1c8c13d9)"><path fill="url(#219fb42404)" d="M 13.855469 -17.40625 L -17.652344 17.828125 L 17.585938 49.335938 L 49.09375 14.097656 Z M 13.855469 -17.40625 " fill-rule="nonzero"/></g></g></g></g></g></g></g></g></g></g></g></g></svg>